<svg height="512" viewBox="0 0 64 64" width="512" xmlns="http://www.w3.org/2000/svg"><g id="Cooking-food-kitchen"><path d="m23.45 14.01a3 3 0 1 1 -5.44 2.54l-.42-.91 5.44-2.53z" fill="#ff9811"/><path d="m20.8 4.61 2.23 8.5-5.44 2.53-5.08-7.17a1.994 1.994 0 0 1 .79-2.96l4.72-2.2a2 2 0 0 1 2.78 1.3z" fill="#f7afd1"/><path d="m55 22v8.93c-3.83-.25-4.16-1.89-8.6-1.89-4.81 0-4.81 1.92-9.61 1.92s-4.8-1.92-9.59-1.92-4.8 1.92-9.6 1.92c-4.44 0-4.77-1.64-8.6-1.89v-7.07z" fill="#bdfdff"/><path d="m10 58h44v3h-44z" fill="#006468"/><path d="m11 55h10v3h-10z" fill="#ff9811"/><path d="m27 55h10v3h-10z" fill="#ff9811"/><path d="m43 55h10v3h-10z" fill="#ff9811"/><path d="m19 52a3 3 0 0 1 -6 0c0-1.66 3-5 3-5s3 3.34 3 5z" fill="#ffda44"/><path d="m35 52a3 3 0 0 1 -6 0c0-1.66 3-5 3-5s3 3.34 3 5z" fill="#ffda44"/><path d="m51 52a3 3 0 0 1 -6 0c0-1.66 3-5 3-5s3 3.34 3 5z" fill="#ffda44"/><path d="m51 43h-38a4 4 0 0 1 -4-4v-9.93c3.83.25 4.16 1.89 8.6 1.89 4.8 0 4.8-1.92 9.6-1.92s4.79 1.92 9.59 1.92 4.8-1.92 9.61-1.92c4.44 0 4.77 1.64 8.6 1.89v8.07a4 4 0 0 1 -4 4z" fill="#ff7956"/><g fill="#ff5023"><path d="m16 35h2v2h-2z"/><path d="m22 38h2v2h-2z"/><path d="m27 33h2v2h-2z"/><path d="m35 37h2v2h-2z"/><path d="m45 32h2v2h-2z"/><path d="m42 38h2v2h-2z"/></g><path d="m32 17h-2v-.5a3.5 3.5 0 0 1 3.5-3.5 1.5 1.5 0 0 0 1.5-1.5v-1.5h2v1.5a3.5 3.5 0 0 1 -3.5 3.5 1.5 1.5 0 0 0 -1.5 1.5z" fill="#ff7956"/><path d="m40 17h-2v-.5a3.5 3.5 0 0 1 3.5-3.5 1.5 1.5 0 0 0 1.5-1.5v-1.5h2v1.5a3.5 3.5 0 0 1 -3.5 3.5 1.5 1.5 0 0 0 -1.5 1.5z" fill="#ff7956"/><path d="m48 17h-2v-.5a3.5 3.5 0 0 1 3.5-3.5 1.5 1.5 0 0 0 1.5-1.5v-1.5h2v1.5a3.5 3.5 0 0 1 -3.5 3.5 1.5 1.5 0 0 0 -1.5 1.5z" fill="#ff7956"/><path d="m17 54a1 1 0 0 1 -2 0 18.835 18.835 0 0 1 1-3 18.835 18.835 0 0 1 1 3z" fill="#ff9811"/><path d="m33 54a1 1 0 0 1 -2 0 18.835 18.835 0 0 1 1-3 18.835 18.835 0 0 1 1 3z" fill="#ff9811"/><path d="m49 54a1 1 0 0 1 -2 0 18.835 18.835 0 0 1 1-3 18.835 18.835 0 0 1 1 3z" fill="#ff9811"/><path d="m9 35h-2a5.006 5.006 0 0 1 -5-5v-5a2 2 0 0 1 2-2h5v2h-5v5a3 3 0 0 0 3 3h2z" fill="#00b6bd"/><path d="m57 35h-2v-2h2a3 3 0 0 0 3-3v-5h-5v-2h5a2 2 0 0 1 2 2v5a5.006 5.006 0 0 1 -5 5z" fill="#00b6bd"/></g></svg>