<?xml version="1.0" encoding="UTF-8"?>
<svg xmlns="http://www.w3.org/2000/svg" xmlns:xlink="http://www.w3.org/1999/xlink" id="Layer_1" data-name="Layer 1" viewBox="0 0 512 512" width="512" height="512"><defs><linearGradient id="linear-gradient" x1="149" y1="465.194" x2="149" y2="264.699" gradientUnits="userSpaceOnUse"><stop offset="0.322" stop-color="#a163f5"/><stop offset="0.466" stop-color="#b074ee"/><stop offset="0.752" stop-color="#d8a1dd"/><stop offset="0.898" stop-color="#efbad3"/></linearGradient><linearGradient id="linear-gradient-2" x1="143" y1="465.194" x2="143" y2="264.699" xlink:href="#linear-gradient"/><linearGradient id="linear-gradient-4" x1="360.5" y1="465.194" x2="360.5" y2="264.699" xlink:href="#linear-gradient"/></defs><path d="M134.763,18.656l-10.219-2.2a6.308,6.308,0,0,0-5.173,1.2A6.14,6.14,0,0,0,117,22.319V72a6,6,0,0,0,12,0V29.75l3.091.637A62.243,62.243,0,0,1,181,90.791V242.3a25.445,25.445,0,0,1-14.195,22.6A37.718,37.718,0,0,0,146,298.579V312H129V112a6,6,0,0,0-12,0V312h-5.891c-3.314,0-6.109,2.187-6.109,5.5V460.938a35,35,0,0,0,70,0V317.5c0-3.313-3.093-5.5-6.406-5.5H158V298.225a25.449,25.449,0,0,1,14.195-22.6A37.719,37.719,0,0,0,193,241.941V90.791a73.777,73.777,0,0,0-58.237-72.135ZM163,460.938A23.217,23.217,0,0,1,140.055,484H139.9A23.176,23.176,0,0,1,117,460.938V455h46ZM163,443H117V363h46Zm0-119v27H117V324Z" style="fill:url(#linear-gradient)"/><path d="M137,179.941a6,6,0,1,0,12,0V83a6,6,0,0,0-12,0Z" style="fill:url(#linear-gradient-2)"/><path d="M143,68a6,6,0,0,0,6-6V55.058a6,6,0,1,0-12,0V62A6,6,0,0,0,143,68Z" style="fill:url(#linear-gradient-2)"/><path d="M400.815,18.5A6.167,6.167,0,0,0,395,24.752V113H367V23.609a6,6,0,1,0-12,0V113H326V24.5a6,6,0,0,0-12,0V134.316a46.686,46.686,0,0,0,15.992,34.8A37.729,37.729,0,0,1,343,197.194V312H332.453c-3.313,0-6.453,2.187-6.453,5.5V460.938C326,480.1,342.039,496,361.2,496h1.665a35.014,35.014,0,0,0,34.74-35.385L395.938,317.72a5.824,5.824,0,0,0-6-5.72H378V281a6,6,0,0,0-12,0v31H355V197.194a49.73,49.73,0,0,0-17.053-37.061A34.681,34.681,0,0,1,326,134.316V125h69v9.316a34.485,34.485,0,0,1-11.507,25.82,51.052,51.052,0,0,0-17.493,38V241a6,6,0,0,0,12,0V198.138a39.049,39.049,0,0,1,13.455-29.024A46.492,46.492,0,0,0,407,134.316V24.5A6,6,0,0,0,400.815,18.5ZM385.6,460.909a22.407,22.407,0,0,1-6.567,16.176A22.735,22.735,0,0,1,362.86,484H361.2A23.434,23.434,0,0,1,338,460.938V455h47.531ZM385.392,443H338V363h46.46Zm-1.385-119,.314,27H338V324Z" style="fill:url(#linear-gradient-4)"/></svg>
