<svg height="425pt" viewBox="0 -10 425.65008 425" width="425pt" xmlns="http://www.w3.org/2000/svg"><path d="m408.21875 177.132812c5.609375-10.019531 4.507812-22.445312-2.769531-31.324218 9.804687-12.160156 7.894531-29.964844-4.265625-39.769532-8.019532-6.464843-18.925782-8.058593-28.460938-4.160156-3.378906-1.390625-6.996094-2.113281-10.648437-2.128906-.023438-12.957031-8.832031-24.25-21.398438-27.421875 0-.328125.097657-.640625.097657-.972656.058593-15.632813-12.566407-28.351563-28.199219-28.410157-10.460938-.035156-20.09375 5.703126-25.042969 14.921876-7.292969-13.691407-24.300781-18.875-37.988281-11.582032-1.847657.984375-3.578125 2.171875-5.160157 3.539063-1.222656-2.058594-2.699218-3.953125-4.394531-5.644531.886719-2.6875 1.355469-5.492188 1.398438-8.320313 0-15.683594-12.710938-28.394531-28.394531-28.394531-15.683594 0-28.398438 12.710937-28.398438 28.394531-9.996094.019531-19.242188 5.316406-24.3125 13.9375-5.933594-5.457031-14.066406-7.847656-22.007812-6.460937-7.574219-13.675782-24.796876-18.625-38.472657-11.054688-9.039062 5.007812-14.632812 14.542969-14.59375 24.875.042969 1.253906.167969 2.5.375 3.734375-6.761719 3.777344-11.675781 10.160156-13.601562 17.664063-.328125 0-.636719-.101563-.972657-.101563-12.957031.023437-24.253906 8.832031-27.421874 21.398437-.328126-.015624-.640626-.101562-.976563-.101562-15.617187-.066406-28.335937 12.539062-28.40625 28.160156-.039063 8.65625 3.890625 16.851563 10.660156 22.246094-6.710937 11.960938-3.699219 27.035156 7.097657 35.496094-2.296876 4.125-3.519532 8.765625-3.546876 13.488281 0 .332031.082032.644531.097657.972656-15.128907 3.773438-24.332031 19.101563-20.558594 34.230469 1.839844 7.355469 6.558594 13.667969 13.097656 17.507812-9.117187 10.484376-9.117187 26.078126 0 36.5625-13.472656 7.941407-17.953125 25.304688-10.007812 38.777344 5.105469 8.65625 14.417969 13.960938 24.46875 13.933594l-.445313 23.957031 38.601563 12.871094 316.800781-150.414063c15.621094.066407 28.339844-12.539062 28.40625-28.160156.039062-8.65625-3.886719-16.855468-10.65625-22.246094zm0 0" fill="#557c3e"/><path d="m94.507812 309.175781c5.910157-5.109375 6.558594-14.042969 1.449219-19.957031-5.109375-5.910156-14.042969-6.5625-19.957031-1.449219-1.261719 1.089844-2.316406 2.390625-3.125 3.847657-.617188-.105469-1.242188-.167969-1.867188-.191407.046876-7.839843-6.269531-14.234375-14.113281-14.28125-7.839843-.050781-14.234375 6.269531-14.28125 14.109375-.015625 2.640625.703125 5.230469 2.078125 7.484375-.6875-.125-1.382812-.195312-2.078125-.210937-7.824219-.015625-14.175781 6.3125-14.191406 14.136718-.007813 6.042969 3.816406 11.429688 9.527344 13.40625-4.027344 5.925782-2.964844 13.925782 2.460937 18.597657-5.898437 5.117187-6.535156 14.050781-1.417968 19.949219 5.117187 5.902343 14.046874 6.539062 19.949218 1.421874.503906-.441406.980469-.914062 1.417969-1.421874 5.105469 5.914062 14.03125 6.570312 19.945313 1.46875 3.128906-2.703126 4.917968-6.636719 4.902343-10.765626 7.8125.03125 14.167969-6.273437 14.203125-14.082031.015625-4.132812-1.773437-8.066406-4.902344-10.765625 5.878907-5.039062 6.566407-13.890625 1.527344-19.769531-.46875-.546875-.980468-1.058594-1.527344-1.527344zm0 0" fill="#a67c52"/><path d="m122.902344 209.789062c5.910156 5.109376 6.5625 14.042969 1.449218 19.957032-5.109374 5.910156-14.042968 6.558594-19.953124 1.449218-1.261719-1.089843-2.320313-2.394531-3.128907-3.851562-.617187.109375-1.238281.171875-1.867187.191406.046875 7.84375-6.269532 14.238282-14.109375 14.285156-7.84375.046876-14.238281-6.269531-14.285157-14.113281-.015624-2.636719.703126-5.230469 2.078126-7.484375-.683594.125-1.378907.199219-2.078126.214844-7.820312.015625-14.175781-6.3125-14.1875-14.136719-.011718-6.042969 3.8125-11.429687 9.523438-13.40625-4.023438-5.925781-2.964844-13.929687 2.464844-18.601562-5.902344-5.117188-6.539063-14.046875-1.421875-19.949219 5.117187-5.898438 14.046875-6.535156 19.949219-1.417969.503906.4375.980468.914063 1.417968 1.417969 5.105469-5.910156 14.035156-6.566406 19.945313-1.464844 3.128906 2.699219 4.921875 6.632813 4.902343 10.765625 7.8125-.03125 14.167969 6.273438 14.203126 14.082031.019531 4.132813-1.773438 8.066407-4.902344 10.765626 5.878906 5.039062 6.566406 13.886718 1.527344 19.769531-.46875.546875-.980469 1.058593-1.527344 1.527343zm0 0" fill="#754c24"/><path d="m215.191406 138.796875c5.910156 5.109375 6.5625 14.042969 1.449219 19.957031-5.109375 5.910156-14.042969 6.558594-19.953125 1.449219-1.261719-1.089844-2.320312-2.394531-3.128906-3.851563-.617188.109376-1.238282.171876-1.867188.195313.046875 7.839844-6.269531 14.234375-14.109375 14.28125-7.84375.046875-14.238281-6.269531-14.285156-14.109375-.015625-2.640625.707031-5.234375 2.082031-7.484375-.6875.125-1.382812.195313-2.082031.210937-7.820313.015626-14.175781-6.3125-14.1875-14.136718-.011719-6.042969 3.8125-11.429688 9.523437-13.40625-4.023437-5.925782-2.964843-13.929688 2.464844-18.601563-5.902344-5.113281-6.539062-14.046875-1.421875-19.945312 5.117188-5.902344 14.046875-6.539063 19.949219-1.421875.507812.441406.980469.914062 1.421875 1.421875 5.101563-5.914063 14.03125-6.570313 19.945313-1.46875 3.125 2.703125 4.917968 6.632812 4.898437 10.765625 7.8125-.03125 14.171875 6.273437 14.203125 14.082031.019531 4.132813-1.773438 8.066406-4.902344 10.765625 5.882813 5.039062 6.566406 13.890625 1.527344 19.769531-.46875.546875-.980469 1.058594-1.527344 1.527344zm0 0" fill="#a67c52"/><path d="m328.777344 138.796875c5.910156 5.109375 6.5625 14.042969 1.453125 19.957031-5.113281 5.910156-14.046875 6.558594-19.957031 1.449219-1.261719-1.089844-2.320313-2.394531-3.125-3.851563-.621094.109376-1.242188.171876-1.871094.195313.050781 7.839844-6.269532 14.234375-14.109375 14.28125-7.84375.046875-14.238281-6.269531-14.285157-14.109375-.015624-2.640625.707032-5.234375 2.082032-7.484375-.6875.125-1.382813.195313-2.082032.210937-7.820312.015626-14.171874-6.3125-14.1875-14.136718-.011718-6.042969 3.8125-11.429688 9.523438-13.40625-4.023438-5.925782-2.964844-13.929688 2.464844-18.601563-5.902344-5.113281-6.535156-14.046875-1.421875-19.945312 5.117187-5.902344 14.046875-6.539063 19.949219-1.421875.507812.441406.980468.914062 1.421874 1.421875 5.101563-5.914063 14.03125-6.570313 19.945313-1.46875 3.128906 2.703125 4.917969 6.632812 4.902344 10.765625 7.808593-.03125 14.167969 6.273437 14.199219 14.082031.019531 4.132813-1.773438 8.066406-4.902344 10.765625 5.882812 5.039062 6.566406 13.890625 1.53125 19.769531-.472656.546875-.984375 1.058594-1.53125 1.527344zm0 0" fill="#754c24"/><g fill="#ed1c24"><path d="m127.800781 255.933594c0 23.523437-19.070312 42.59375-42.59375 42.59375-23.523437 0-42.597656-19.070313-42.597656-42.59375 0-23.527344 19.074219-42.597656 42.597656-42.597656 23.523438 0 42.59375 19.070312 42.59375 42.597656zm0 0"/><path d="m283.984375 113.949219c0 23.523437-19.070313 42.59375-42.597656 42.59375-23.523438 0-42.59375-19.070313-42.59375-42.59375 0-23.523438 19.070312-42.59375 42.59375-42.59375 23.527343 0 42.597656 19.070312 42.597656 42.59375zm0 0"/><path d="m390.46875 156.542969c0 23.527343-19.070312 42.597656-42.59375 42.597656-23.527344 0-42.597656-19.070313-42.597656-42.597656 0-23.523438 19.070312-42.59375 42.597656-42.59375 23.523438 0 42.59375 19.070312 42.59375 42.59375zm0 0"/><path d="m170.394531 149.445312c0 23.523438-19.070312 42.59375-42.59375 42.59375-23.523437 0-42.59375-19.070312-42.59375-42.59375 0-23.523437 19.070313-42.59375 42.59375-42.59375 23.523438 0 42.59375 19.070313 42.59375 42.59375zm0 0"/></g><path d="m7.113281 341.121094c0 31.367187 25.429688 56.792968 56.792969 56.792968 23.472656 0 46.746094-4.25 68.699219-12.542968l286.261719-108.140625c0-69.363281-39.96875-132.519531-102.652344-162.210938l-4.707032-2.234375c-18.121093-8.582031-37.921874-13.035156-57.972656-13.035156-39.261718.011719-76.589844 17.058594-102.304687 46.726562-33.417969 38.539063-51.816407 87.832032-51.824219 138.839844v55.804688c0 15.683594-12.714844 28.398437-28.398438 28.398437h-7.097656c-15.683594 0-28.398437-12.714843-28.398437-28.398437 0-7.839844-6.355469-14.199219-14.195313-14.199219-7.84375 0-14.203125 6.359375-14.203125 14.199219zm0 0" fill="#fcbf8e"/><path d="m149.101562 319.820312h14.195313v14.199219h-14.195313zm0 0"/><path d="m163.296875 298.523438h14.199219v14.199218h-14.199219zm0 0"/><path d="m191.695312 319.820312h14.199219v14.199219h-14.199219zm0 0"/><path d="m177.496094 263.027344h14.199218v14.199218h-14.199218zm0 0"/><path d="m220.089844 277.226562h14.195312v14.199219h-14.195312zm0 0"/><path d="m63.910156 405.015625c24.328125.015625 48.457032-4.390625 71.210938-13.007813l286.257812-108.132812c2.761719-1.046875 4.589844-3.691406 4.585938-6.644531-.019532-18.75-2.890625-37.390625-8.519532-55.273438 11.652344-13.40625 11.371094-33.429687-.660156-46.5 1.382813-3.785156 2.089844-7.785156 2.082032-11.8125-.007813-6.265625-1.671876-12.414062-4.828126-17.828125 3.164063-5.347656 4.832032-11.453125 4.828126-17.667968-.023438-19.59375-15.902344-35.472657-35.496094-35.496094-3.617188.003906-7.207032.5625-10.652344 1.660156-1.359375-.429688-2.742188-.777344-4.144531-1.050781-2.1875-11.636719-10.046875-21.414063-20.941407-26.050781-2.214843-19.417969-19.75-33.359376-39.167968-31.140626-7.910156.902344-15.285156 4.449219-20.933594 10.0625-10.417969-10.09375-25.890625-12.914062-39.199219-7.148437.097657-1.050781.15625-2.128906.15625-3.125.015625-19.601563-15.863281-35.507813-35.464843-35.527344-17.117188-.011719-31.808594 12.191407-34.933594 29.019531-7.46875 1.382813-14.289063 5.164063-19.421875 10.769532-5.1875-2.734375-10.953125-4.195313-16.816407-4.261719-11.707031-15.652344-33.890624-18.855469-49.546874-7.148437-8.964844 6.703124-14.226563 17.253906-14.195313 28.449218v.15625c-4.910156 3.714844-8.777344 8.632813-11.234375 14.28125-12.59375 1.5-23.425781 9.625-28.394531 21.296875-17.875 2.113281-31.34375 17.253907-31.367188 35.253907.011719 8.769531 3.304688 17.21875 9.230469 23.683593-1.402344 3.78125-2.121094 7.777344-2.128906 11.8125.007812 8.769531 3.300781 17.21875 9.226562 23.679688-.910156 2.476562-1.53125 5.046875-1.859375 7.660156-13.066406 5.542969-21.5546872 18.359375-21.566406 32.550781-.03125 9.855469 4.089844 19.269532 11.359375 25.925782-5.710938 10.390624-5.710938 22.976562 0 33.367187-11.6875 10.734375-14.734375 27.972656-7.433594 42.0625-2.546875 3.570313-3.9218748 7.84375-3.925781 12.230469.0390625 35.269531 28.621094 63.855468 63.894531 63.894531zm66.191406-26.269531c-21.152343 8-43.578124 12.089844-66.191406 12.070312-27.433594-.03125-49.664062-22.261718-49.695312-49.695312 0-3.921875 3.179687-7.097656 7.097656-7.097656 3.921875 0 7.101562 3.179687 7.101562 7.097656.023438 19.59375 15.902344 35.472656 35.496094 35.496094h7.097656c19.59375-.023438 35.472657-15.902344 35.496094-35.496094v-55.804688c.003906-49.289062 17.777344-96.925781 50.054688-134.175781 37.730468-43.542969 99.851562-56.605469 151.921875-31.945313l4.707031 2.230469c58.484375 27.917969 96.492188 86.148438 98.507812 150.925781zm-80.390624-122.8125c-.03125-19.574219 15.808593-35.464844 35.382812-35.496094 5.542969-.007812 11.007812 1.28125 15.957031 3.769531-5.140625 17.691407-8.027343 35.960938-8.597656 54.378907-5.804687-2.214844-12.304687-1.691407-17.683594 1.417968-4.628906-7.390625-13.339843-11.15625-21.898437-9.46875-2.078125-4.589844-3.15625-9.566406-3.160156-14.601562zm14.199218-49.695313c.023438-3.003906 1.9375-5.671875 4.777344-6.652343 3.699219-1.296876 5.648438-5.347657 4.347656-9.046876-.195312-.566406-.464844-1.105468-.796875-1.601562-2.007812-2.960938-1.464843-6.957031 1.261719-9.269531 2.941406-2.59375 3.222656-7.082031.628906-10.023438-.195312-.222656-.40625-.429687-.628906-.628906-2.996094-2.484375-3.40625-6.929687-.921875-9.925781 1.363281-1.640625 3.394531-2.578125 5.53125-2.546875.1875.035156.375.074219.558594.128906 2.578125 18.277344 15.152343 33.582031 32.578125 39.664063-2.085938 4.699218-4.027344 9.453124-5.777344 14.289062-12.742188-5.773438-27.335938-5.851562-40.132812-.210938-.910157-1.203124-1.410157-2.667968-1.425782-4.175781zm100.59375-88.328125c-2.007812-2.960937-1.460937-6.957031 1.261719-9.269531 2.941406-2.59375 3.222656-7.082031.628906-10.023437-.195312-.222657-.40625-.429688-.628906-.628907-2.957031-2.527343-3.308594-6.976562-.777344-9.9375 2.527344-2.960937 6.976563-3.308593 9.9375-.78125.28125.238281.542969.5.78125.78125 2.777344 2.953125 7.421875 3.09375 10.375.316407.109375-.101563.214844-.207032.316407-.316407 1.316406-1.566406 3.25-2.476562 5.296874-2.5 3.921876 0 7.097657 3.179688 7.097657 7.101563 0 3.917968 3.179687 7.097656 7.097656 7.097656.726563.011719 1.445313.136719 2.132813.367188-15.410157 5.203124-29.816407 13-42.597657 23.058593.402344-1.804687.070313-3.699219-.921875-5.265625zm218.746094 40.847656c-11.761719-14.375-25.605469-26.910156-41.070312-37.199218 19.160156-3.304688 37.371093 9.546875 40.679687 28.707031.355469 2.074219.527344 4.175781.511719 6.277344 0 .746093-.070313 1.476562-.121094 2.214843zm-58.46875-47.285156c-1.84375-.953125-3.640625-1.980468-5.53125-2.839844l-4.707031-2.230468c-11.832031-5.585938-24.375-9.527344-37.277344-11.707032-.242187-.65625-.371094-1.34375-.382813-2.042968 0-3.921875 3.179688-7.097656 7.097657-7.097656 2.042969.011718 3.980469.910156 5.304687 2.46875 2.777344 2.953124 7.425782 3.09375 10.375.316406.109375-.105469.214844-.207032.316406-.316406 1.324219-1.558594 3.261719-2.460938 5.304688-2.46875 3.921875 0 7.097656 3.175781 7.097656 7.097656s3.179688 7.097656 7.097656 7.097656c3.921876 0 7.101563 3.179688 7.101563 7.097656 0 1.714844-.640625 3.363282-1.796875 4.625zm-62.097656-18.488281c-3.058594-.207031-6.117188-.332031-9.179688-.332031-9.960937.003906-19.894531 1.054687-29.636718 3.128906-1.8125-2.976562-4.324219-5.460938-7.320313-7.238281 12.867187-12.648438 33.21875-13.507813 47.109375-1.996094-.625 1.976563-.949219 4.03125-.972656 6.105469zm-120.683594 42.261719c.023438 3.042968.703125 6.046875 1.988281 8.804687-10.214843 12.097657-19.089843 25.269531-26.46875 39.277344-18.75-5.566406-29.441406-25.277344-23.875-44.03125 5.566407-18.75 25.277344-29.441406 44.03125-23.875 3.746094 1.113281 7.28125 2.835937 10.464844 5.101563-3.894531 3.914062-6.101563 9.199218-6.140625 14.722656zm-91.410156 167.441406c1.53125-2.289062 1.597656-5.253906.179687-7.609375-2.058593-3.339844-1.023437-7.710937 2.3125-9.769531 3.335938-2.058594 7.710938-1.023438 9.769531 2.3125.703126 1.144531 1.070313 2.464844 1.054688 3.808594.164062 3.835937 3.222656 6.914062 7.058594 7.097656l1 .128906c2.871094.386719 5.6875-1.019531 7.097656-3.550781 1.222656-2.257813 3.578125-3.667969 6.144531-3.675781 3.917969 0 7.097657 3.175781 7.097657 7.097656v42.59375c0 11.761718-9.535157 21.296875-21.296876 21.296875h-7.101562c-8.148438-.035157-15.5625-4.722657-19.09375-12.066407.105469-.113281.15625-.261718.277344-.363281 2.9375-2.59375 3.21875-7.078125.628906-10.019531-.199219-.222656-.410156-.433594-.628906-.628906-2.726563-2.316406-3.269532-6.3125-1.265625-9.273438 2.195312-3.246094 1.347656-7.660156-1.902344-9.855468-.511719-.347657-1.0625-.625-1.648437-.828126-2.835938-.988281-4.742188-3.65625-4.761719-6.660156-.097657-3.808594 2.910156-6.976562 6.71875-7.074218.464843-.011719.929687.023437 1.386719.101562 2.726562.441406 5.457031-.757812 6.972656-3.0625zm-24.136719-18.871094c-6.871094-7.828125-6.871094-19.542968 0-27.375 2.535156-2.988281 2.167969-7.46875-.820313-10.003906-.300781-.253906-.621093-.484375-.960937-.6875-10.078125-5.886719-13.472656-18.828125-7.585937-28.910156 2.878906-4.925782 7.625-8.476563 13.164062-9.851563 3.246094-.820312 5.476562-3.796875 5.355469-7.140625.007812-.238281-.023438-.480468-.09375-.710937.03125-3.535157.957031-7.007813 2.691406-10.09375 1.640625-3.011719.894531-6.769531-1.777344-8.921875-8.128906-6.308594-10.394531-17.625-5.324219-26.574219 1.644532-3.011719.898438-6.769531-1.773437-8.921875-9.15625-7.292969-10.667969-20.632812-3.371094-29.789062 3.929688-4.933594 9.855469-7.863282 16.164063-7.988282.261718 0 .964844.109375 1.226562.113282 3.3125.058593 6.238282-2.140626 7.101563-5.335938 2.292969-9.273438 10.515625-15.859375 20.066406-16.074219.265625.035157.96875.105469 1.230469.113281 3.308594.058594 6.234375-2.140624 7.097656-5.335937 1.46875-5.617187 5.15625-10.394531 10.214844-13.234375 2.519531-1.421875 3.925781-4.230469 3.550781-7.097656l-.113281-.824219c-.109375-.667969-.175782-1.339844-.191406-2.015625-.042969-11.710938 9.417968-21.238281 21.128906-21.28125 7.738281-.027344 14.878906 4.160156 18.625 10.929688 1.414062 2.53125 4.230468 3.941406 7.101562 3.550781l.707032-.101563c.707031-.113281 1.417968-.179687 2.128906-.195312 5.03125.019531 9.890625 1.847656 13.6875 5.144531 2.988281 2.539063 7.472656 2.171875 10.007812-.816406.253906-.300781.484375-.621094.683594-.957031 3.777344-6.484376 10.714844-10.46875 18.21875-10.472657 3.917969 0 7.097656-3.179687 7.097656-7.097656-.222656-11.761719 9.128906-21.476563 20.886719-21.699219 11.761719-.222656 21.476563 9.128906 21.699219 20.886719.046875 2.382813-.308594 4.757813-1.050782 7.023437-.769531 2.511719-.085937 5.242188 1.769532 7.097657 1.273437 1.277343 2.382812 2.707031 3.300781 4.257812 1.082031 1.800781 2.898437 3.035157 4.96875 3.375 2.058594.347657 4.167969-.234375 5.757813-1.59375 3.789062-3.292969 8.636718-5.121093 13.660156-5.152343 7.785156.035156 14.933594 4.324218 18.632812 11.175781 1.878906 3.441406 6.191406 4.710937 9.632813 2.832031 1.195312-.652344 2.179687-1.636719 2.835937-2.832031 5.5625-10.316407 18.433594-14.164063 28.75-8.601563 6.734375 3.632813 10.988282 10.613282 11.140625 18.261719-.035156.234375-.105469.910156-.113281 1.136719-.140625 3.351562 2.085938 6.347656 5.335938 7.175781 9.429687 2.363281 16.050781 10.824219 16.074218 20.546875 0 3.917969 3.179688 7.097656 7.097656 7.097656 2.738282.003906 5.449219.542969 7.980469 1.582032 1.710938.703124 3.628907.703124 5.339844 0 10.796875-4.480469 23.183594.640624 27.664063 11.441406 2.988281 7.199218 1.777343 15.460937-3.152344 21.5-2.09375 2.597656-2.09375 6.304687 0 8.902344 5.457031 6.636718 6.269531 15.945312 2.050781 23.425781-1.640625 3.011719-.894531 6.769531 1.773437 8.925781 6.675782 5.121094 9.539063 13.804688 7.226563 21.890625-4.558594-10.71875-10.105469-20.992187-16.566406-30.6875 9.601562-25.652344-3.410157-54.230469-29.0625-63.832031-5.582031-2.089844-11.492188-3.15625-17.453125-3.148438-2.398438.011719-4.796875.191406-7.167969.546875 0-.183593.070313-.363281.070313-.546875 0-9.382812-6.136719-17.65625-15.117188-20.382812-3.375-11.226563-15.210938-17.589844-26.4375-14.214844-1.605469.484375-3.144531 1.152344-4.589844 1.996094-7.011718-4.105469-15.757812-3.832032-22.5.710937-8.734375-6.957031-19.578125-10.734375-30.746094-10.707031-12.757812.046875-25.015624 4.972656-34.257812 13.765625-6.753906-7.1875-17.574219-8.75-26.082031-3.769531-10.136719-5.910156-23.140625-2.488282-29.050781 7.644531-3.859376 6.613281-3.859376 14.792969 0 21.40625-.363282.738281-.683594 1.496094-.960938 2.269531-24.144531-12.867187-54.15625-3.726562-67.023438 20.417969-2.730468 5.121094-4.539062 10.675781-5.34375 16.421875-.191406 0-.371093-.066406-.5625-.066406-11.730468-.03125-21.261718 9.457031-21.292968 21.1875-.011719 3.78125.988281 7.496094 2.894531 10.761718-1.890625 3.230469-2.890625 6.90625-2.898437 10.648438.003906 1.671875.199218 3.339844.582031 4.96875-8.355469 6.902344-10.136719 19.007812-4.128907 28.027344-17.511718 14.636718-22.726562 39.351562-12.628906 59.816406-3.28125 3.804688-5.097656 8.652344-5.121094 13.671875v1.199219c-8.503906 3.023437-14.191406 11.070312-14.195312 20.097656.039062 2.480469.519531 4.933594 1.417969 7.242188-.476563 0-.929688-.140626-1.417969-.140626-1.871094.027344-3.726562.300782-5.523438.816407-3.996093-9.710938-.195312-20.875 8.894532-26.132813 3.367187-2.003906 4.472656-6.363281 2.464844-9.730468-.199219-.339844-.429688-.660157-.683594-.960938h-.011719zm0 0"/><path d="m149.097656 319.824219h14.199219v14.199219h-14.199219zm0 0"/><path d="m163.296875 298.527344h14.199219v14.199218h-14.199219zm0 0"/><path d="m191.695312 319.824219h14.195313v14.199219h-14.195313zm0 0"/><path d="m177.496094 263.03125h14.199218v14.199219h-14.199218zm0 0"/><path d="m220.089844 277.230469h14.199218v14.199219h-14.199218zm0 0"/></svg>